<svg width="21" height="20" viewBox="0 0 21 20" fill="none" xmlns="http://www.w3.org/2000/svg">
<path d="M18.3508 4.99198C15.5758 4.71698 12.7842 4.57532 10.0008 4.57532C8.35083 4.57532 6.70083 4.65865 5.05083 4.82532L3.35083 4.99198" stroke="#E76B71" stroke-width="1.5" stroke-linecap="round" stroke-linejoin="round"/>
<path d="M7.93408 4.15035L8.11742 3.05869C8.25075 2.26702 8.35075 1.67535 9.75908 1.67535H11.9424C13.3507 1.67535 13.4591 2.30035 13.5841 3.06702L13.7674 4.15035" stroke="#E76B71" stroke-width="1.5" stroke-linecap="round" stroke-linejoin="round"/>
<path d="M16.5592 7.62531L16.0176 16.017C15.9259 17.3253 15.8509 18.342 13.5259 18.342H8.17591C5.85091 18.342 5.77591 17.3253 5.68424 16.017L5.14258 7.62531" stroke="#E76B71" stroke-width="1.5" stroke-linecap="round" stroke-linejoin="round"/>
<path d="M9.45923 13.7587H12.2342" stroke="#E76B71" stroke-width="1.5" stroke-linecap="round" stroke-linejoin="round"/>
<path d="M8.76758 10.4254H12.9342" stroke="#E76B71" stroke-width="1.5" stroke-linecap="round" stroke-linejoin="round"/>
</svg>
