<svg width="20" height="16" viewBox="0 0 20 16" fill="none" xmlns="http://www.w3.org/2000/svg">
<path d="M18 8C18 7.24 18.43 6.58 19.06 6.24C19.66 5.91 20 5.23 20 4.54V2C20 0.9 19.1 0 18 0H2C0.9 0 0.00999999 0.89 0.00999999 1.99V4.54C0.00999999 5.23 0.34 5.91 0.95 6.23C1.58 6.58 2 7.24 2 8C2 8.76 1.57 9.43 0.94 9.76C0.34 10.09 0 10.77 0 11.46V13.71C0 15.1 0.9 16 2 16H18C19.1 16 20 15.1 20 14V11.46C20 10.77 19.66 10.09 19.06 9.76C18.43 9.42 18 8.76 18 8ZM12.5 12.1L10 10.5L7.5 12.11C7.12 12.35 6.63 12 6.75 11.56L7.5 8.68L5.2 6.8C4.85 6.51 5.03 5.94 5.49 5.91L8.45 5.74L9.53 2.99C9.7 2.57 10.3 2.57 10.46 2.99L11.54 5.75L14.5 5.92C14.95 5.95 15.14 6.52 14.79 6.81L12.49 8.69L13.25 11.55C13.37 12 12.88 12.35 12.5 12.1Z" fill="#C4C5D0"/>
</svg>
